<svg width="200" height="200" fill="#000000" xmlns="http://www.w3.org/2000/svg" xmlns:xlink="http://www.w3.org/1999/xlink" version="1.1" x="0px" y="0px" viewBox="0 0 24 24" style="enable-background:new 0 0 24 24;" xml:space="preserve"><g><g><path d="M17,10c1.654,0,3-1.346,3-3s-1.346-3-3-3s-3,1.346-3,3v2h-4V7c0-1.654-1.346-3-3-3S4,5.346,4,7s1.346,3,3,3h2v4H7    c-1.654,0-3,1.346-3,3s1.346,3,3,3s3-1.346,3-3v-2h4v2c0,1.654,1.346,3,3,3s3-1.346,3-3s-1.346-3-3-3h-2v-4H17z M15,7    c0-1.103,0.897-2,2-2c1.103,0,2,0.897,2,2c0,1.103-0.897,2-2,2h-2V7z M9,17c0,1.103-0.897,2-2,2c-1.103,0-2-0.897-2-2    c0-1.103,0.897-2,2-2h2V17z M9,9H7C5.897,9,5,8.103,5,7c0-1.103,0.897-2,2-2c1.103,0,2,0.897,2,2V9z M14,14h-4v-4h4V14z M17,15    c1.103,0,2,0.897,2,2c0,1.103-0.897,2-2,2c-1.103,0-2-0.897-2-2v-2H17z M20.5,0h-17C1.57,0,0,1.57,0,3.5v17    C0,22.43,1.57,24,3.5,24h17c1.93,0,3.5-1.57,3.5-3.5v-17C24,1.57,22.43,0,20.5,0z M23,20.5c0,1.378-1.122,2.5-2.5,2.5h-17    C2.122,23,1,21.878,1,20.5v-17C1,2.122,2.122,1,3.5,1h17C21.878,1,23,2.122,23,3.5V20.5z"/></g></g></svg>