<svg width="200" height="200" fill="#000000" xmlns="http://www.w3.org/2000/svg" xmlns:xlink="http://www.w3.org/1999/xlink" version="1.1" x="0px" y="0px" viewBox="0 0 24 24" style="enable-background:new 0 0 24 24;" xml:space="preserve"><g><g><path d="M7,5C5.897,5,5,5.897,5,7c0,1.103,0.897,2,2,2h2V7C9,5.897,8.103,5,7,5z M19,7c0-1.103-0.897-2-2-2c-1.103,0-2,0.897-2,2    v2h2C18.103,9,19,8.103,19,7z M5,17c0,1.103,0.897,2,2,2c1.103,0,2-0.897,2-2v-2H7C5.897,15,5,15.897,5,17z M10,14h4v-4h-4V14z     M15,17c0,1.103,0.897,2,2,2c1.103,0,2-0.897,2-2c0-1.103-0.897-2-2-2h-2V17z M20.5,0h-17C1.57,0,0,1.57,0,3.5v17    C0,22.43,1.57,24,3.5,24h17c1.93,0,3.5-1.57,3.5-3.5v-17C24,1.57,22.43,0,20.5,0z M17,14c1.654,0,3,1.346,3,3s-1.346,3-3,3    s-3-1.346-3-3v-2h-4v2c0,1.654-1.346,3-3,3s-3-1.346-3-3s1.346-3,3-3h2v-4H7c-1.654,0-3-1.346-3-3s1.346-3,3-3s3,1.346,3,3v2h4V7    c0-1.654,1.346-3,3-3s3,1.346,3,3s-1.346,3-3,3h-2v4H17z"/></g></g></svg>