<svg height='200' width='200'  fill="#000000" xmlns="http://www.w3.org/2000/svg" xmlns:xlink="http://www.w3.org/1999/xlink" version="1.1" x="0px" y="0px" viewBox="0 0 24 24" xml:space="preserve">
  <g>
    <g>
      <path d="M9.439,18.852c-5.19,0-9.412-4.223-9.412-9.413s4.222-9.412,9.412-9.412s9.413,4.222,9.413,9.412 S14.629,18.852,9.439,18.852z M9.439,1.327c-4.473,0-8.112,3.639-8.112,8.112s3.639,8.112,8.112,8.112s8.112-3.639,8.112-8.112 S13.912,1.327,9.439,1.327z"></path>
    </g>
    <g>
      <path d="M4.99,14.438c-0.169,0-0.337-0.065-0.465-0.196C3.263,12.95,2.568,11.245,2.568,9.44c0-1.836,0.715-3.562,2.013-4.859 c0.254-0.254,0.665-0.254,0.919,0s0.254,0.665,0,0.919C4.447,6.552,3.868,7.951,3.868,9.44c0,1.463,0.564,2.846,1.587,3.894 c0.251,0.257,0.246,0.668-0.011,0.919C5.318,14.377,5.154,14.438,4.99,14.438z"></path>
    </g>
    <g>
      <path d="M23.323,23.974c-0.166,0-0.333-0.063-0.46-0.19l-6.024-6.024c-0.254-0.254-0.254-0.666,0-0.92s0.666-0.254,0.92,0 l6.024,6.024c0.254,0.254,0.254,0.666,0,0.92C23.656,23.91,23.489,23.974,23.323,23.974z"></path>
    </g>
  </g>
</svg>
